<svg id="Layer_1" data-name="Layer 1" xmlns="http://www.w3.org/2000/svg" viewBox="0 0 588 448"><defs><style>.cls-1{fill:#5479b3;}</style></defs><path class="cls-1" d="M524.53,69.84a1.44,1.44,0,0,0-.76-.7A484.77,484.77,0,0,0,404.08,32a1.81,1.81,0,0,0-1.92.91,337.46,337.46,0,0,0-14.9,30.6,448.08,448.08,0,0,0-134.43,0,310.43,310.43,0,0,0-15.13-30.6,1.9,1.9,0,0,0-1.93-.91A483.79,483.79,0,0,0,116.08,69.14a1.7,1.7,0,0,0-.78.67C39.07,183.65,18.19,294.69,28.43,404.35a2,2,0,0,0,.76,1.38A487.92,487.92,0,0,0,176,479.92a1.89,1.89,0,0,0,2.06-.68,347.87,347.87,0,0,0,30-48.84,1.86,1.86,0,0,0-.82-2.5l-.2-.09A321.66,321.66,0,0,1,161.23,406a1.9,1.9,0,0,1-.67-2.58,2,2,0,0,1,.49-.55c3.08-2.31,6.16-4.71,9.11-7.13a1.82,1.82,0,0,1,1.9-.26c96.23,43.92,200.41,43.92,295.5,0a1.81,1.81,0,0,1,1.92.23c2.95,2.43,6,4.85,9.13,7.16a1.88,1.88,0,0,1,.38,2.64,1.81,1.81,0,0,1-.54.49,301.71,301.71,0,0,1-45.89,21.83,1.87,1.87,0,0,0-1.08,2.42,1.54,1.54,0,0,0,.08.19,390.61,390.61,0,0,0,30,48.81,1.84,1.84,0,0,0,2.06.7A486.11,486.11,0,0,0,610.7,405.73a1.88,1.88,0,0,0,.77-1.35C623.73,277.59,590.93,167.46,524.53,69.84Zm-302,267.74c-29,0-52.84-26.59-52.84-59.24s23.41-59.24,52.84-59.24c29.67,0,53.31,26.82,52.84,59.24C275.33,311,251.92,337.58,222.49,337.58Zm195.38,0c-29,0-52.84-26.59-52.84-59.24s23.41-59.24,52.84-59.24c29.67,0,53.31,26.82,52.84,59.24C470.71,311,447.54,337.58,417.87,337.58Z" transform="translate(-26 -32)"/></svg>