<svg id="Layer_1" data-name="Layer 1" xmlns="http://www.w3.org/2000/svg" viewBox="0 0 496 496"><defs><style>.cls-1{fill:#5479b3;}</style></defs><path class="cls-1" d="M254,14.19c-137,0-248,111-248,248s111,248,248,248,248-111,248-248S391,14.19,254,14.19ZM369,182.85c-3.73,39.22-19.88,134.38-28.1,178.3-3.47,18.59-10.32,24.82-17,25.43-14.4,1.32-25.33-9.52-39.28-18.66-21.83-14.31-34.16-23.22-55.35-37.18-24.48-16.13-8.61-25,5.34-39.5,3.65-3.79,67.11-61.51,68.34-66.75.15-.65.3-3.1-1.16-4.38s-3.59-.85-5.13-.5q-3.29.75-104.61,69.14-14.85,10.2-26.89,9.94c-8.86-.19-25.89-5-38.55-9.13-15.53-5-27.88-7.71-26.8-16.29q.84-6.69,18.45-13.7,108.43-47.25,144.62-62.3c68.88-28.64,83.19-33.62,92.52-33.79,2.05,0,6.63.48,9.61,2.89a10.5,10.5,0,0,1,3.53,6.71A43.79,43.79,0,0,1,369,182.85Z" transform="translate(-6 -14.19)"/></svg>