<?xml version="1.0" encoding="UTF-8"?>
<svg id="Layer_1" data-name="Layer 1" xmlns="http://www.w3.org/2000/svg" xmlns:xlink="http://www.w3.org/1999/xlink" viewBox="0 0 891 585.72">
  <defs>
    <style>
      .cls-1 {
        fill: url(#linear-gradient-2);
      }

      .cls-2 {
        fill: #01052d;
      }

      .cls-3 {
        mask: url(#mask-3);
      }

      .cls-4 {
        fill: #005b50;
      }

      .cls-5 {
        mask: url(#mask);
      }

      .cls-6 {
        fill: url(#linear-gradient-3);
      }

      .cls-7 {
        fill: url(#linear-gradient);
      }

      .cls-8 {
        fill: url(#linear-gradient-4);
      }
    </style>
    <linearGradient id="linear-gradient" x1="504.72" y1="193.11" x2="233.96" y2="193.12" gradientTransform="translate(0 467.96) scale(1 -1)" gradientUnits="userSpaceOnUse">
      <stop offset="0" stop-color="#0067b0"/>
      <stop offset="1" stop-color="#2ddaff"/>
    </linearGradient>
    <mask id="mask" x="396.54" y="104.78" width="108.94" height="295.05" maskUnits="userSpaceOnUse"/>
    <linearGradient id="linear-gradient-2" x1="606.37" y1="280.53" x2="606.38" y2="531.17" gradientTransform="translate(0 467.96) scale(1 -1)" gradientUnits="userSpaceOnUse">
      <stop offset="0" stop-color="#07aba0"/>
      <stop offset="1" stop-color="#fef7a2"/>
    </linearGradient>
    <mask id="mask-3" x="518.7" y="44.41" width="100.04" height="198.47" maskUnits="userSpaceOnUse"/>
    <linearGradient id="linear-gradient-3" x1="436.43" y1="280.54" x2="436.44" y2="531.18" xlink:href="#linear-gradient-2"/>
    <linearGradient id="linear-gradient-4" x1="504.72" y1="410.69" x2="233.99" y2="410.7" xlink:href="#linear-gradient"/>
  </defs>
  <g id="Logo">
    <path class="cls-7" d="M279.47,173.83h156.96c37.71,0,68.28-30.58,68.28-68.28v68.28h0v225.25c0,40.09-48.39,60.13-76.74,31.79L247.69,250.57c-28.35-28.35-8.3-76.74,31.79-76.74Z"/>
    <g class="cls-5">
      <path class="cls-2" d="M397.31,173.83h39.13c37.71,0,68.28-30.58,68.28-68.28v68.28h0v225.25h0c0-124.72-33.7-206.27-107.41-225.25Z"/>
    </g>
    <path class="cls-1" d="M519.46,45.08V173.83h0v68.28c0-37.71,30.57-68.28,68.28-68.28h60.47c18.57,0,34.42-10.6,41.53-27.75,7.1-17.16,3.39-35.86-9.74-48.99L596.2,13.29c-13.13-13.13-31.83-16.85-48.99-9.74-17.16,7.1-27.75,22.96-27.75,41.53Z"/>
    <g class="cls-3">
      <path class="cls-4" d="M519.46,45.17V173.83h0v68.28c0-37.71,30.57-68.28,68.28-68.28h30.23c-71.48-16.72-98.52-64.37-98.52-128.66Z"/>
    </g>
    <path class="cls-6" d="M460.34,129.45c13.2-13.2,13.2-34.6,0-47.8-13.2-13.2-34.6-13.2-47.8,0-13.21,13.2-13.21,34.6,0,47.8,13.2,13.2,34.6,13.2,47.8,0Z"/>
    <path class="cls-8" d="M400.12,69.22c6.61-6.61,6.61-17.32,0-23.92-6.61-6.61-17.32-6.61-23.93,0-6.61,6.61-6.61,17.32,0,23.92,6.61,6.61,17.32,6.61,23.93,0Z"/>
  </g>
</svg>