<?xml version="1.0" encoding="UTF-8"?>
<svg id="logo" xmlns="http://www.w3.org/2000/svg" viewBox="0 0 1477.62 1632.38">
  <defs>
    <style>
      .cls-1 {
        fill: #fff;
      }

      .cls-2 {
        fill: #00fff1;
      }

      .cls-3 {
        fill: #044B94;
        fill-opacity: 1;
      }
    </style>
  </defs>
  <g>
    <polygon class="cls-2" points="850.78 32.09 757.58 14.94 634.77 23.51 655.98 255.38 634.77 453.39 532.22 640.8 282.94 1068.19 192.77 1227.77 192.77 1294.95 238.74 1359.3 328.91 1379.81 1211.13 1372.74 1264.16 1323.32 1285.38 1241.91 1193.45 1068.19 984.83 713.29 850.78 485.22 823.94 306.65 827.48 101.57 850.78 32.09"/>
    <path class="cls-2" d="M1288.13,1200.1L877.2,488.35c-55.12-194.9-30.6-381.79-22.16-432.7,5.21-1.29,10.68-3.61,14.82-7.72,4.23-4.2,6.56-9.74,6.56-15.6,0-9.93-6.86-17.2-20.39-21.6-6.87-2.23-16.35-4.19-28.17-5.81-23.08-3.17-53.61-4.92-85.96-4.92-58.31,0-114.79,8.72-128.56,19.86-5.92,4.79-8.39,12.08-6.43,19.03,2.2,7.81,8.67,12.82,21.04,15.91,8.16,48.77,32.48,230.44-18.92,422.38L191.63,1200.1c-23.05,39.93-23.05,87.6,0,127.52,23.05,39.93,64.34,63.76,110.44,63.76h875.62c46.1,0,87.38-23.84,110.44-63.76,23.05-39.92,23.05-87.6,0-127.52Zm-27.79,111.48c-17.25,29.88-48.15,47.72-82.65,47.72H302.07c-34.5,0-65.4-17.84-82.65-47.72-17.25-29.88-17.25-65.56,0-95.43L638.9,489.58l.55-2.02c58.67-216.91,23.34-421.81,18.26-448.67,18.74-3.44,47.3-6.8,84.19-6.8s65.52,2.33,83.87,4.98l-.21,1.11c-3.05,15.93-13.16,74.36-15.09,157.11-2.52,108.04,9.73,210.24,36.43,303.77l.54,1.9,412.91,715.18c17.25,29.88,17.25,65.56,0,95.44Z"/>
    <path class="cls-3" d="M1015.1,899.57l-107.4-148.15c-9.2-12.7-24.39-19.62-40.01-18.22-46.1,4.13-109.14,10.56-137.45,24.28-58.24,28.24-94.53,17.03-143.88,6.91-18.06-3.7-36.55,4.08-46.59,19.55l-75.1,115.63-190.99,294.06c-37.44,57.64,9.36,129.69,84.23,129.69h763.95c74.87,0,121.67-72.05,84.23-129.69l-190.99-294.06Z"/>
  </g>
  <g>
    <path class="cls-1" d="M0,1628.14v-187.62H126.14v38.42H43.73v35.24H121.63v36.31H43.73v38.96h87.19v38.69H0Z"/>
    <path class="cls-1" d="M205.64,1528.77v50.35c0,12.19,3.98,18.55,16.43,18.55,4.24,0,9.54-.79,12.72-2.12l.53,31.8c-5.83,2.12-15.9,3.97-25.17,3.97-35.24,0-46.9-18.81-46.9-46.9v-55.65h-21.2v-32.59h20.94v-34.71h42.67v34.71h31v32.59h-31Z"/>
    <path class="cls-1" d="M387.69,1574.08h-95.66c1.32,14.57,15.9,24.91,31.53,24.91,13.78,0,23.32-5.83,29.15-13.78l30.21,19.08c-12.45,18.02-33.12,28.09-59.89,28.09-39.75,0-72.61-25.17-72.61-69.7s31.27-70.75,71.28-70.75,66.25,26.77,66.25,71.82c0,3.44,0,7.15-.27,10.33Zm-39.75-27.03c0-13.78-8.75-25.17-25.97-25.17s-28.88,11.66-29.94,25.17h55.92Z"/>
    <path class="cls-1" d="M500.58,1531.68c-3.98-1.06-7.69-1.33-11.13-1.33-23.32,0-31,19.08-31,29.95v67.84h-43.46v-131.97h41.87v19.08h.53c6.62-13.25,19.61-22.79,35.77-22.79,3.44,0,7.15,.26,9.27,1.06l-1.85,38.16Z"/>
    <path class="cls-1" d="M606.58,1628.14v-72.08c0-14.58-3.98-27.82-19.61-27.82s-23.32,13.25-23.32,28.35v71.55h-43.73v-131.97h42.13v18.29h.53c6.09-11.66,21.2-22,39.48-22,35.51,0,48.23,27.56,48.23,54.06v81.62h-43.73Z"/>
    <path class="cls-1" d="M681.31,1514.19c15.37-14.57,37.36-22.26,58.83-22.26,44.25,0,60.68,21.73,60.68,69.7v66.51h-39.75v-14.04h-.79c-6.62,10.87-21.73,17.22-37.36,17.22-20.94,0-47.96-10.33-47.96-41.34,0-38.16,46.38-44.52,84.8-44.52v-2.12c0-12.99-10.33-19.08-23.85-19.08-12.46,0-24.65,6.09-32.59,13.51l-22-23.58Zm79.76,56.45h-5.56c-19.08,0-40.54,2.38-40.54,18.02,0,10.07,10.07,13.52,18.81,13.52,17.49,0,27.29-10.6,27.29-27.03v-4.5Z"/>
    <path class="cls-1" d="M833.68,1628.14v-200.34h43.99v200.34h-43.99Z"/>
    <path class="cls-1" d="M914.5,1628.14v-187.62h45.58v148.13h72.61v39.49h-118.19Z"/>
    <path class="cls-1" d="M1049.65,1514.19c15.37-14.57,37.37-22.26,58.83-22.26,44.25,0,60.69,21.73,60.69,69.7v66.51h-39.75v-14.04h-.79c-6.62,10.87-21.73,17.22-37.37,17.22-20.93,0-47.96-10.33-47.96-41.34,0-38.16,46.38-44.52,84.8-44.52v-2.12c0-12.99-10.33-19.08-23.85-19.08-12.46,0-24.65,6.09-32.6,13.51l-22-23.58Zm79.77,56.45h-5.57c-19.08,0-40.54,2.38-40.54,18.02,0,10.07,10.07,13.52,18.82,13.52,17.49,0,27.29-10.6,27.29-27.03v-4.5Z"/>
    <path class="cls-1" d="M1285.76,1631.85c-17.49,0-34.71-7.68-43.19-20.93h-.53v17.22h-40.01v-200.34h43.46v82.42h.53c7.42-8.75,20.94-17.75,40.28-17.75,38.42,0,62.27,32.33,62.27,69.17s-23.05,70.22-62.8,70.22Zm-10.33-103.88c-19.61,0-31.8,17.23-31.8,33.92s12.19,33.92,31.8,33.92c20.67,0,31.27-16.96,31.27-34.18s-10.6-33.66-31.27-33.66Z"/>
    <path class="cls-1" d="M1453.77,1535.13c-6.89-6.62-16.96-11.92-27.56-11.92-8.21,0-16.43,2.92-16.43,10.6s7.15,9.54,24.11,13.25c20.14,4.5,42.13,14.58,42.13,40.28,0,33.39-29.41,45.05-56.44,45.05-21.46,0-43.72-7.16-57.5-20.41l24.38-25.71c7.68,8.48,19.61,14.84,32.33,14.84,7.16,0,15.63-2.92,15.63-11.39s-8.21-10.87-26.24-15.11c-18.28-4.24-38.42-13.51-38.42-38.42,0-31.53,29.68-44.25,54.86-44.25,19.61,0,40.01,6.36,53,18.55l-23.85,24.65Z"/>
  </g>
  <g>
    <path class="cls-1" d="M549.71,1182.25c2.11-3.08,5.03-3.86,8.69-3.82,15.62,.16,31.25,.07,46.87,.07h4.23v-84.02c-1.76,0-3.57,.02-5.38,0-13.68-.15-24.31-10.51-24.4-23.76-.09-13.06,10.57-23.94,24.1-24.18,12.74-.22,25.49-.05,37.95-.05,17.08-50.71,51.18-79.79,105.31-77.4,48.94,2.15,79.36,30.97,94.19,77.26h20.43v-4.35c0-38.51,.13-77.01-.08-115.52-.06-10.8,1.35-20.9,9.14-29.81-1.69-.1-2.74-.22-3.78-.22-73.37,0-146.74-.02-220.11,0-14.99,0-25.14,10.2-25.15,25.23-.03,34.51,0,69.01-.01,103.52,0,1.13,.06,2.26-.04,3.37-.3,3.53-2.81,5.93-6.08,5.87-3.12-.06-5.52-2.38-5.84-5.71-.1-.99-.04-2-.04-3,0-34.38-.01-68.76,0-103.14,0-22.87,15.23-38.14,38.01-38.15,82.12,0,164.24,0,246.36,0,21.37,0,33.75,9.56,39.15,30.21,.05,.21,.31,.36,.47,.55v31.51c-2.12,3.05-5.03,3.86-8.69,3.82-15.74-.16-31.49-.07-47.23-.07-1.31,0-2.62,0-3.88,0v96.05c2.15,0,4.13-.07,6.09,.01,13.43,.58,23.96,11.55,23.69,24.62-.28,13.05-10.89,23.2-24.43,23.34-1.81,.02-3.62,0-5.55,0v5.09c0,35.62,.03,71.24-.05,106.86,0,3.59-.28,7.28-1.13,10.75-4.07,16.62-18.31,27.31-36.17,27.32-72.35,.02-144.7,0-217.06,0-11.37,0-22.74,.11-34.11-.04-15.44-.2-28.88-10.15-33.67-24.71-.65-1.99-1.21-4-1.81-6.01,0-10.5,0-21,0-31.51Zm72-87.66v4.78c0,34.87-.13,69.75,.08,104.62,.06,10.25-1.97,19.56-8.46,27.66-.1,.12,.05,.44,.11,.85,.84,0,1.71,0,2.57,0,73.61,0,147.22,.02,220.83-.01,14.5,0,24.84-10.33,24.85-24.79,.04-36.62,.02-73.25,0-109.87,0-1.07-.14-2.14-.21-3.2h-20.57c-.36,1.19-.69,2.26-.99,3.34-4.39,15.68-12.13,29.49-23.09,41.51-3.09,3.38-6.78,3.88-9.51,1.31-2.63-2.47-2.47-5.93,.57-9.27,11.1-12.18,18.44-26.28,21.88-42.42,1.14-5.36,2.77-6.59,8.24-6.6,13.62-.01,27.24,.02,40.87-.02,7.24-.02,12.54-4.82,12.8-11.44,.26-6.51-5.21-12.39-12.35-12.46-18.24-.18-36.49-.23-54.74,.01-9.21,.12-16.21,7.31-17.08,16.63-.2,2.11-.41,4.24-.78,6.32-5,28.06-27.34,50.22-54.58,54.15-29.57,4.27-56.83-10.06-69.82-36.81-1.82-3.74-3.17-7.7-4.83-11.77-6.48,5.46-13.97,7.64-22.26,7.47,.14,.94,.17,1.44,.3,1.92,11.52,41.76,56.95,70.46,99.61,63.03,10.8-1.88,21.03-5.23,30.64-10.52,3.88-2.14,7-1.54,8.91,1.42,2.1,3.25,.94,6.74-3.04,8.99-13.6,7.69-28.26,11.89-43.8,12.91-41.2,2.72-80.92-20.83-98.29-58.38-2.87-6.2-4.94-12.76-7.45-19.35h-20.41Zm120.07-78.13c-29.69-.03-53.98,24.11-54.07,53.74-.09,29.88,24.12,54.25,53.92,54.27,29.68,.02,53.98-24.13,54.08-53.75,.1-29.87-24.12-54.24-53.93-54.27Zm86.57,29.99c-.52-1.84-.83-3.17-1.26-4.46-12.8-38.48-49.94-63.67-90.56-61.43-40.15,2.22-74.08,31.2-82.7,70.67-1.32,6.04-2.78,7.24-8.88,7.24-13.49,0-26.99-.09-40.48,.05-7.19,.08-12.79,5.6-12.74,12.1,.06,6.79,5.41,11.82,12.79,11.84,17.62,.04,35.23,.06,52.85,0,10.32-.04,17.52-6.79,18.56-17.13,.2-1.99,.4-3.98,.75-5.95,4.89-27.59,25.88-48.74,53.49-53.92,26.7-5.01,54.16,7.61,68.26,31.68,3.04,5.18,5.13,10.92,7.7,16.5,6.23-5.12,13.56-7.49,22.24-7.18Zm93.27-108.17c0-6.88,.37-13.5-.08-20.06-.81-11.59-10.57-20.94-22.07-21.72-11.91-.81-23.1,6.93-24.89,18.62-1.15,7.5-.22,15.32-.22,23.16h47.26Zm-359.89,252.28c0,6.52-.15,12.74,.03,18.94,.35,11.55,8.88,20.9,20.56,22.77,10.66,1.72,21.9-4.74,25.71-15.11,3.18-8.67,1.17-17.67,1.67-26.6h-47.97Z"/>
    <path class="cls-1" d="M742.09,914.45c21,0,42,0,63,0,1.12,0,2.28-.11,3.37,.09,3.23,.6,5.18,2.59,5.18,5.91,0,3.32-1.96,5.3-5.19,5.9-1.09,.2-2.24,.09-3.37,.09-42.25,0-84.5,0-126.75,0-1.12,0-2.28,.11-3.37-.09-3.23-.61-5.18-2.59-5.17-5.91,0-3.32,1.95-5.31,5.18-5.9,1.09-.2,2.24-.09,3.37-.09,21.25,0,42.5,0,63.75,0Z"/>
    <path class="cls-1" d="M741.47,950.46c-13.37,0-26.75,.01-40.12,0-4.8,0-7.52-2.13-7.61-5.86-.1-3.86,2.71-6.13,7.7-6.13,26.87-.01,53.75-.01,80.62,0,4.8,0,7.52,2.13,7.61,5.85,.09,3.86-2.72,6.14-7.71,6.14-13.5,.02-27,0-40.5,0Z"/>
    <path class="cls-1" d="M675.64,950.43c-3.26-.04-5.94-2.78-5.9-6.04,.04-3.27,2.77-5.94,6.03-5.91,3.26,.04,5.95,2.78,5.91,6.03-.04,3.25-2.79,5.95-6.03,5.91Z"/>
    <path class="cls-1" d="M813.68,944.56c-.06,3.25-2.84,5.93-6.08,5.87-3.25-.06-5.92-2.83-5.86-6.08,.06-3.26,2.82-5.92,6.07-5.86,3.26,.06,5.92,2.83,5.86,6.08Z"/>
    <path class="cls-1" d="M676.08,1178.5c7.5,0,15-.03,22.5,.01,4.42,.03,7.1,2.34,7.1,5.98,0,3.64-2.69,5.98-7.09,5.99-15.25,.03-30.5,.03-45.75,0-4.42,0-7.09-2.34-7.1-5.99,0-3.66,2.66-5.96,7.09-5.99,7.75-.04,15.5-.01,23.25-.01Z"/>
    <path class="cls-1" d="M807.45,1190.5c-7.5,0-15,.03-22.5-.01-4.48-.02-7.13-2.24-7.21-5.88-.08-3.76,2.68-6.1,7.35-6.1,15.12-.02,30.25-.03,45.37,0,4.46,0,7.14,2.25,7.21,5.87,.07,3.75-2.7,6.09-7.36,6.11-7.62,.03-15.25,0-22.87,0Z"/>
    <path class="cls-1" d="M675.66,1202.51c7.62,0,15.25-.03,22.87,.01,4.43,.02,7.11,2.31,7.14,5.94,.03,3.64-2.66,6.02-7.06,6.03-15.25,.04-30.5,.03-45.75,0-4.45,0-7.11-2.29-7.13-5.95-.03-3.66,2.64-6,7.05-6.03,7.62-.05,15.25-.01,22.87-.01Z"/>
    <path class="cls-1" d="M807.34,1214.51c-7.5,0-15,.03-22.5-.01-4.43-.03-7.09-2.33-7.1-5.98,0-3.66,2.65-5.98,7.08-5.99,15.25-.03,30.5-.03,45.75,0,4.42,0,7.1,2.34,7.11,5.98,0,3.64-2.68,5.97-7.09,6-7.75,.04-15.5,.01-23.25,.01Z"/>
    <path class="cls-1" d="M728.96,1085.46c9.26-12.33,18.09-24.1,26.92-35.87,1.57-2.1,3.09-4.24,4.73-6.29,2.45-3.07,5.73-3.67,8.54-1.67,2.83,2.01,3.48,5.49,1.18,8.59-11.84,15.93-23.74,31.82-35.72,47.65-2.59,3.42-6.28,3.59-9.41,.55-5.91-5.74-11.74-11.58-17.48-17.49-2.69-2.77-2.64-6.28-.2-8.69,2.44-2.41,5.9-2.42,8.69,.29,4.2,4.07,8.23,8.32,12.75,12.93Z"/>
  </g>
</svg>
