<?xml version="1.0" encoding="UTF-8"?>
<svg id="Layer_1" data-name="Layer 1" xmlns="http://www.w3.org/2000/svg" xmlns:xlink="http://www.w3.org/1999/xlink" viewBox="0 0 482.18 316.97">
  <defs>
    <style>
      .cls-1 {
        fill: url(#linear-gradient-2);
      }

      .cls-2 {
        fill: url(#linear-gradient-15);
      }

      .cls-3 {
        fill: url(#linear-gradient-14);
      }

      .cls-4 {
        fill: url(#linear-gradient-6);
      }

      .cls-5 {
        fill: #01052d;
      }

      .cls-6 {
        mask: url(#mask-3);
      }

      .cls-7 {
        fill: url(#linear-gradient-11);
      }

      .cls-8 {
        fill: url(#linear-gradient-10);
      }

      .cls-9 {
        fill: url(#linear-gradient-5);
      }

      .cls-10 {
        fill: #005b50;
      }

      .cls-11 {
        fill: url(#linear-gradient-7);
      }

      .cls-12 {
        fill: url(#linear-gradient-9);
      }

      .cls-13 {
        mask: url(#mask);
      }

      .cls-14 {
        fill: url(#linear-gradient-3);
      }

      .cls-15 {
        fill: url(#linear-gradient);
      }

      .cls-16 {
        fill: url(#linear-gradient-4);
      }

      .cls-17 {
        fill: url(#linear-gradient-8);
      }

      .cls-18 {
        fill: url(#linear-gradient-12);
      }

      .cls-19 {
        fill: url(#linear-gradient-13);
      }
    </style>
    <linearGradient id="linear-gradient" x1="273.14" y1="183.29" x2="126.61" y2="183.3" gradientTransform="translate(0 332.03) scale(1 -1)" gradientUnits="userSpaceOnUse">
      <stop offset="0" stop-color="#0067b0"/>
      <stop offset="1" stop-color="#2ddaff"/>
    </linearGradient>
    <mask id="mask" x="214.59" y="56.71" width="58.95" height="159.67" maskUnits="userSpaceOnUse"/>
    <linearGradient id="linear-gradient-2" x1="328.15" y1="230.6" x2="328.15" y2="366.24" gradientTransform="translate(0 332.03) scale(1 -1)" gradientUnits="userSpaceOnUse">
      <stop offset="0" stop-color="#07aba0"/>
      <stop offset="1" stop-color="#fef7a2"/>
    </linearGradient>
    <mask id="mask-3" x="280.7" y="24.03" width="54.14" height="107.4" maskUnits="userSpaceOnUse"/>
    <linearGradient id="linear-gradient-3" x1="236.18" y1="230.6" x2="236.19" y2="366.24" xlink:href="#linear-gradient-2"/>
    <linearGradient id="linear-gradient-4" x1="273.14" y1="301.04" x2="126.63" y2="301.04" xlink:href="#linear-gradient"/>
    <linearGradient id="linear-gradient-5" x1="46.96" y1="311.35" x2="-5.02" y2="259.38" gradientUnits="userSpaceOnUse">
      <stop offset="0" stop-color="#0067b0"/>
      <stop offset="1" stop-color="#2ddaff"/>
    </linearGradient>
    <linearGradient id="linear-gradient-6" x1="83.58" y1="308.53" x2="44.72" y2="269.67" xlink:href="#linear-gradient-5"/>
    <linearGradient id="linear-gradient-7" x1="121.86" y1="311.37" x2="88.08" y2="277.59" xlink:href="#linear-gradient-5"/>
    <linearGradient id="linear-gradient-8" x1="160.63" y1="304.56" x2="132" y2="275.94" xlink:href="#linear-gradient-5"/>
    <linearGradient id="linear-gradient-9" x1="210.41" y1="317.38" x2="167.61" y2="274.57" xlink:href="#linear-gradient-5"/>
    <linearGradient id="linear-gradient-10" x1="261.41" y1="315.5" x2="223.32" y2="277.41" xlink:href="#linear-gradient-5"/>
    <linearGradient id="linear-gradient-11" x1="299.16" y1="302.83" x2="259.29" y2="262.97" xlink:href="#linear-gradient-5"/>
    <linearGradient id="linear-gradient-12" x1="336.73" y1="315.85" x2="286.83" y2="265.95" xlink:href="#linear-gradient-5"/>
    <linearGradient id="linear-gradient-13" x1="381.61" y1="315.5" x2="343.51" y2="277.41" xlink:href="#linear-gradient-5"/>
    <linearGradient id="linear-gradient-14" x1="430.65" y1="314.01" x2="379.55" y2="262.91" xlink:href="#linear-gradient-5"/>
    <linearGradient id="linear-gradient-15" x1="479.72" y1="310.15" x2="448.27" y2="278.69" xlink:href="#linear-gradient-5"/>
  </defs>
  <g id="Logo">
    <path class="cls-15" d="M151.24,94.07h84.94c20.41,0,36.95-16.55,36.95-36.95v36.95h0v121.89c0,21.69-26.19,32.54-41.53,17.2l-97.57-97.57c-15.34-15.34-4.49-41.53,17.2-41.53Z"/>
    <g class="cls-13">
      <path class="cls-5" d="M215.01,94.07h21.18c20.41,0,36.95-16.55,36.95-36.95v36.95h0v121.89h0c0-67.49-18.24-111.62-58.13-121.89Z"/>
    </g>
    <path class="cls-1" d="M281.11,24.4V94.07h0v36.95c0-20.41,16.54-36.95,36.95-36.95h32.72c10.05,0,18.63-5.73,22.47-15.02s1.83-19.41-5.27-26.51L322.64,7.19c-7.11-7.11-17.23-9.12-26.51-5.27-9.28,3.84-15.02,12.43-15.02,22.47Z"/>
    <g class="cls-6">
      <path class="cls-10" d="M281.11,24.44V94.07h0v36.95c0-20.41,16.54-36.95,36.95-36.95h16.36c-38.68-9.05-53.31-34.84-53.31-69.63Z"/>
    </g>
    <path class="cls-14" d="M249.12,70.05c7.14-7.14,7.14-18.73,0-25.87-7.14-7.14-18.73-7.14-25.87,0-7.15,7.14-7.15,18.73,0,25.87,7.14,7.14,18.73,7.14,25.87,0Z"/>
    <path class="cls-16" d="M216.53,37.46c3.58-3.58,3.58-9.37,0-12.95-3.58-3.58-9.38-3.58-12.95,0-3.58,3.58-3.58,9.37,0,12.95,3.58,3.58,9.38,3.58,12.95,0Z"/>
  </g>
  <g id="Name">
    <path class="cls-9" d="M0,315.59v-61.22H41.16v12.54H14.27v11.5h25.42v11.85H14.27v12.71h28.45v12.63H0Z"/>
    <path class="cls-4" d="M67.1,283.16v16.43c0,3.98,1.3,6.05,5.36,6.05,1.38,0,3.11-.26,4.15-.69l.17,10.38c-1.9,.69-5.19,1.3-8.21,1.3-11.5,0-15.3-6.14-15.3-15.3v-18.16h-6.92v-10.63h6.83v-11.33h13.92v11.33h10.12v10.63h-10.12Z"/>
    <path class="cls-11" d="M126.51,297.94h-31.22c.43,4.75,5.19,8.13,10.29,8.13,4.5,0,7.61-1.9,9.51-4.5l9.86,6.23c-4.06,5.88-10.81,9.17-19.54,9.17-12.97,0-23.69-8.21-23.69-22.74s10.2-23.09,23.26-23.09,21.62,8.74,21.62,23.44c0,1.12,0,2.33-.09,3.37h0Zm-12.97-8.82c0-4.5-2.86-8.21-8.47-8.21s-9.42,3.8-9.77,8.21h18.24Z"/>
    <path class="cls-17" d="M163.35,284.11c-1.3-.35-2.51-.43-3.63-.43-7.61,0-10.12,6.23-10.12,9.77v22.14h-14.18v-43.06h13.66v6.23h.17c2.16-4.32,6.4-7.44,11.67-7.44,1.12,0,2.33,.08,3.03,.35l-.6,12.45h0Z"/>
    <path class="cls-12" d="M197.94,315.59v-23.52c0-4.76-1.3-9.08-6.4-9.08s-7.61,4.32-7.61,9.25v23.35h-14.27v-43.06h13.75v5.97h.17c1.99-3.8,6.92-7.18,12.88-7.18,11.59,0,15.74,8.99,15.74,17.64v26.63h-14.26Z"/>
    <path class="cls-8" d="M222.33,278.4c5.02-4.75,12.19-7.26,19.2-7.26,14.44,0,19.8,7.09,19.8,22.74v21.7h-12.97v-4.58h-.26c-2.16,3.55-7.09,5.62-12.19,5.62-6.83,0-15.65-3.37-15.65-13.49,0-12.45,15.13-14.53,27.67-14.53v-.69c0-4.24-3.37-6.23-7.78-6.23-4.07,0-8.04,1.99-10.63,4.41l-7.18-7.69h0Zm26.03,18.42h-1.81c-6.23,0-13.23,.78-13.23,5.88,0,3.29,3.29,4.41,6.14,4.41,5.71,0,8.91-3.46,8.91-8.82v-1.47h0Z"/>
    <path class="cls-7" d="M272.05,315.59v-65.38h14.35v65.38h-14.35Z"/>
    <path class="cls-18" d="M298.42,315.59v-61.22h14.87v48.34h23.69v12.89h-38.57Z"/>
    <path class="cls-19" d="M342.52,278.4c5.02-4.75,12.19-7.26,19.2-7.26,14.44,0,19.8,7.09,19.8,22.74v21.7h-12.97v-4.58h-.26c-2.16,3.55-7.09,5.62-12.19,5.62-6.83,0-15.65-3.37-15.65-13.49,0-12.45,15.13-14.53,27.67-14.53v-.69c0-4.24-3.37-6.23-7.78-6.23-4.07,0-8.04,1.99-10.64,4.41l-7.18-7.69Zm26.03,18.42h-1.82c-6.23,0-13.23,.78-13.23,5.88,0,3.29,3.29,4.41,6.14,4.41,5.71,0,8.91-3.46,8.91-8.82v-1.47h0Z"/>
    <path class="cls-3" d="M419.57,316.8c-5.71,0-11.33-2.51-14.09-6.83h-.17v5.62h-13.06v-65.38h14.18v26.9h.17c2.42-2.86,6.83-5.79,13.14-5.79,12.54,0,20.32,10.55,20.32,22.57s-7.52,22.91-20.49,22.91h0Zm-3.37-33.9c-6.4,0-10.38,5.62-10.38,11.07s3.98,11.07,10.38,11.07c6.75,0,10.2-5.53,10.2-11.15s-3.46-10.98-10.2-10.98Z"/>
    <path class="cls-2" d="M474.4,285.23c-2.25-2.16-5.53-3.89-8.99-3.89-2.68,0-5.36,.95-5.36,3.46s2.33,3.11,7.87,4.32c6.57,1.47,13.75,4.76,13.75,13.14,0,10.9-9.6,14.7-18.42,14.7-7,0-14.27-2.34-18.76-6.66l7.96-8.39c2.51,2.77,6.4,4.84,10.55,4.84,2.34,0,5.1-.95,5.1-3.72s-2.68-3.55-8.56-4.93c-5.97-1.38-12.54-4.41-12.54-12.54,0-10.29,9.69-14.44,17.9-14.44,6.4,0,13.06,2.08,17.3,6.05l-7.78,8.04h0Z"/>
  </g>
</svg>