<svg id="Layer_1" data-name="Layer 1" xmlns="http://www.w3.org/2000/svg" viewBox="0 0 32 32"><defs><style>.cls-1{fill:#fff;}</style></defs><g id="Lager_80" data-name="Lager 80"><path id="Path_89" data-name="Path 89" class="cls-1" d="M24,22.82v5a1,1,0,0,1-1,1H5a1,1,0,0,1-1-1v-18a1,1,0,0,1,1-1h5a2,2,0,0,0,2-2h0a2,2,0,0,0-2-2H3a3,3,0,0,0-3,3v22a3,3,0,0,0,3,3H25a3,3,0,0,0,3-3h0v-7a2,2,0,0,0-2-2h0A2,2,0,0,0,24,22.82Z" transform="translate(0 -0.82)"/><path id="Rectangle_40" data-name="Rectangle 40" class="cls-1" d="M18,.82H30a2,2,0,0,1,2,2h0a2,2,0,0,1-2,2H18a2,2,0,0,1-2-2h0A2,2,0,0,1,18,.82Z" transform="translate(0 -0.82)"/><path id="Rectangle_41" data-name="Rectangle 41" class="cls-1" d="M32,2.82v12a2,2,0,0,1-2,2h0a2,2,0,0,1-2-2v-12a2,2,0,0,1,2-2h0A2,2,0,0,1,32,2.82Z" transform="translate(0 -0.82)"/><g id="Group_37" data-name="Group 37"><path id="Rectangle_42" data-name="Rectangle 42" class="cls-1" d="M8.58,21.43l20-20a2,2,0,0,1,2.81,0h0a2,2,0,0,1,0,2.81l-20,20a2,2,0,0,1-2.81,0h0A2,2,0,0,1,8.58,21.43Z" transform="translate(0 -0.82)"/></g></g></svg>