<?xml version="1.0" standalone="no"?>
<!DOCTYPE svg PUBLIC "-//W3C//DTD SVG 20010904//EN"
 "http://www.w3.org/TR/2001/REC-SVG-20010904/DTD/svg10.dtd">
<svg version="1.0" xmlns="http://www.w3.org/2000/svg"
 width="32.000000pt" height="32.000000pt" viewBox="0 0 32.000000 32.000000"
 preserveAspectRatio="xMidYMid meet">

<g transform="translate(0.000000,32.000000) scale(0.100000,-0.100000)"
fill="#FFFFFF" stroke="none">
<path d="M52 268 c-16 -16 -16 -200 0 -216 16 -16 200 -16 216 0 16 16 16 200
0 216 -16 16 -200 16 -216 0z m203 -108 l0 -95 -95 0 -95 0 -3 84 c-2 46 0 90
2 98 4 11 27 13 98 11 l93 -3 0 -95z"/>
<path d="M140 230 c0 -5 14 -10 32 -10 l32 0 -42 -43 c-55 -56 -41 -70 15 -15
l43 42 0 -32 c0 -18 5 -32 10 -32 6 0 10 23 10 50 l0 50 -50 0 c-27 0 -50 -4
-50 -10z"/>
</g>
</svg>
