<?xml version="1.0" standalone="no"?>
<!DOCTYPE svg PUBLIC "-//W3C//DTD SVG 20010904//EN"
 "http://www.w3.org/TR/2001/REC-SVG-20010904/DTD/svg10.dtd">
<svg version="1.0" xmlns="http://www.w3.org/2000/svg"
 width="96.000000pt" height="96.000000pt" viewBox="0 0 96.000000 96.000000"
 preserveAspectRatio="xMidYMid meet">

<g transform="translate(0.000000,96.000000) scale(0.100000,-0.100000)"
fill="#036EB5" stroke="none">
<path d="M136 824 c-14 -13 -16 -59 -16 -344 0 -285 2 -331 16 -344 13 -14 59
-16 344 -16 285 0 331 2 344 16 14 13 16 59 16 344 0 285 -2 331 -16 344 -13
14 -59 16 -344 16 -285 0 -331 -2 -344 -16z m584 -184 l0 -40 -240 0 -240 0 0
40 0 40 240 0 240 0 0 -40z m0 -160 l0 -40 -240 0 -240 0 0 40 0 40 240 0 240
0 0 -40z m0 -160 l0 -40 -240 0 -240 0 0 40 0 40 240 0 240 0 0 -40z"/>
</g>
</svg>
